<svg width="27" height="22" viewBox="0 0 27 22" fill="none" xmlns="http://www.w3.org/2000/svg">
<path d="M26.8889 6.11111V15.8889L23.2222 17.1111L19.4456 10.3889C19.1278 9.82667 18.2356 10.1078 18.3333 10.7678L19.5556 22L7.33333 17.1111L8.73889 7.26C9.02789 5.24526 10.0334 3.40221 11.5712 2.06876C13.1089 0.735316 15.0758 0.000839788 17.1111 0H26.8889L24.9578 2.89667C26.1067 3.52 26.8889 4.71778 26.8889 6.11111ZM3.66667 2.44444H8.04222C8.65333 1.51556 9.41111 0.696667 10.2789 0H3.66667C2.99444 0 2.44444 0.55 2.44444 1.22222C2.44444 1.89444 2.99444 2.44444 3.66667 2.44444ZM5.91556 9.77778H1.22222C0.55 9.77778 0 10.3278 0 11C0 11.6722 0.55 12.2222 1.22222 12.2222H5.56111L5.91556 9.77778ZM2.44444 7.33333H6.25778L6.31889 6.91778C6.41667 6.20889 6.58778 5.53667 6.82 4.88889H2.44444C1.77222 4.88889 1.22222 5.43889 1.22222 6.11111C1.22222 6.78333 1.77222 7.33333 2.44444 7.33333Z" fill="black"/>
</svg>
