<svg width="25" height="28" viewBox="0 0 25 28" fill="none" xmlns="http://www.w3.org/2000/svg">
<path d="M5.96071 0L0 2.55297L6.33156 17.3367L8.78494 16.286L7.14058 4.85273L7.06433 4.32206L11.7442 3.64897L10.9985 1.90788C10.0048 2.13262 9.27879 2.11332 8.17499 3.16244L7.81801 3.50155L7.44984 3.17489C6.37063 2.21756 6.20921 0.996826 5.96071 0V0ZM7.08721 0.0293061C7.28038 0.792041 7.4169 1.47526 7.84827 2.03547C8.61178 1.42719 9.30447 1.18803 9.93014 1.03876C9.06734 0.581656 8.16391 0.31105 7.08721 0.0293061V0.0293061ZM14.6964 4.30765L8.27816 5.23067L10.5676 21.1495L12.7702 20.8327L14.1514 9.27731L14.215 8.74503L19.3428 9.35796L19.0689 7.45425C18.0508 7.41428 17.3546 7.20765 16.0168 7.9353L15.5843 8.17058L15.3132 7.75964C14.5186 6.55564 14.6785 5.33485 14.6964 4.30765V4.30765ZM15.7769 4.62734C15.7661 5.41419 15.7211 6.1095 15.9928 6.76228C16.8878 6.3723 17.6188 6.3206 18.2618 6.33835C17.5467 5.67348 16.7441 5.1782 15.7769 4.62734V4.62734ZM15.1524 9.93693L13.2437 25.9059L23.5348 27.1358L25 14.8777C24.0269 14.5755 23.4078 14.1956 21.9273 14.5522L21.4487 14.6675L21.2932 14.2005C20.8373 12.8319 21.3077 11.6941 21.5909 10.7065L15.1524 9.93693ZM22.5519 11.295C22.3378 12.0522 22.1144 12.7121 22.2079 13.413C23.1732 13.2679 23.8927 13.4072 24.5092 13.5908C23.9905 12.7635 23.3435 12.0773 22.5519 11.295V11.295Z" fill="black"/>
</svg>
